<?xml version="1.0" standalone="no"?><!DOCTYPE svg PUBLIC "-//W3C//DTD SVG 1.1//EN" "http://www.w3.org/Graphics/SVG/1.1/DTD/svg11.dtd"><svg t="1601203609081" class="icon" viewBox="0 0 1024 1024" version="1.1" xmlns="http://www.w3.org/2000/svg" p-id="809" xmlns:xlink="http://www.w3.org/1999/xlink" width="200" height="200"><defs><style type="text/css"></style></defs><path d="M136.23 610.88a34.22 34.22 0 0 0 48.41 0l361.47-361.46 361.48 361.46A34.23 34.23 0 0 0 956 562.46L574.31 180.8a34.21 34.21 0 0 0-27.87-14.36h-0.67a34.21 34.21 0 0 0-27.87 14.36L136.23 562.46a34.22 34.22 0 0 0 0 48.42z" p-id="810" fill="#707070"></path><path d="M136.23 877a34.22 34.22 0 0 0 48.41 0l361.47-361.45L907.59 877A34.23 34.23 0 0 0 956 828.6L574.31 446.93a34.21 34.21 0 0 0-27.87-14.36h-0.67a34.21 34.21 0 0 0-27.87 14.36L136.23 828.6a34.22 34.22 0 0 0 0 48.4z" p-id="811" fill="#707070"></path></svg>